<svg id="Mascot" xmlns="http://www.w3.org/2000/svg" xmlns:xlink="http://www.w3.org/1999/xlink" viewBox="0 0 375.36 304.75"><defs><style>.cls-1{fill:url(#linear-gradient);}.cls-2{fill:url(#linear-gradient-2);}.cls-3{fill:url(#linear-gradient-3);}</style><linearGradient id="linear-gradient" x1="-341.4" y1="622.47" x2="-274.64" y2="622.98" gradientTransform="matrix(5.57, 0, 0, -5.57, 1964.84, 3717.99)" gradientUnits="userSpaceOnUse"><stop offset="0" stop-color="#ffb900"/><stop offset="0.34" stop-color="#f38000"/><stop offset="0.57" stop-color="#f83c72"/><stop offset="0.78" stop-color="#fc1cbe"/><stop offset="0.93" stop-color="#fe08ed"/><stop offset="1" stop-color="#f0f"/></linearGradient><linearGradient id="linear-gradient-2" x1="-322.64" y1="600.61" x2="-254.57" y2="638.3" gradientTransform="matrix(5.57, 0, 0, -5.57, 1964.84, 3717.99)" gradientUnits="userSpaceOnUse"><stop offset="0" stop-color="#ee0a3f"/><stop offset="1" stop-color="#ee0a3f" stop-opacity="0"/></linearGradient><linearGradient id="linear-gradient-3" x1="-478.29" y1="611" x2="-445.05" y2="637.78" gradientTransform="translate(-2427.96 3677.64) rotate(180) scale(5.51)" gradientUnits="userSpaceOnUse"><stop offset="0" stop-color="#ed6600"/><stop offset="1" stop-color="#f98200"/></linearGradient></defs><g id="g942"><g id="g71"><path id="path69" class="cls-1" d="M250.08,402.38a15.38,15.38,0,0,1-7.61-2C222.62,388.91,75.57,296.71,70,293.89a13.3,13.3,0,0,1-7.6-10.65V153.92a14,14,0,0,1,6.31-12l1.07-.61c14.22-8.82,61.84-37.89,69.38-42.07a11.42,11.42,0,0,1,5.7-1.6,11.79,11.79,0,0,1,5.4,1.37s66.64,43.44,76.84,47.32a52.51,52.51,0,0,0,22.82,4.79,51.11,51.11,0,0,0,25.56-6.23c10-5.25,73.64-45.65,74.33-45.65a10,10,0,0,1,5.32-1.44,11.27,11.27,0,0,1,5.71,1.59c8.67,4.8,67.7,40.93,70.21,42.53a13.7,13.7,0,0,1,6.62,11.87V283.09a13.15,13.15,0,0,1-7.61,10.65c-5.55,3.05-152.14,95.25-172.38,106.51a15.31,15.31,0,0,1-7.61,2.13" transform="translate(-62.32 -97.62)"/></g><g id="g79"><path id="path77" class="cls-2" d="M249.32,402.38h.76a15.35,15.35,0,0,0,7.61-2c19.86-11.49,166.83-103.69,172.38-106.51a13.13,13.13,0,0,0,7.61-10.65V153.92a13.84,13.84,0,0,0-1.44-6.32L249.32,250.23V402.38" transform="translate(-62.32 -97.62)"/></g><g id="g970"><path id="path968" class="cls-3" d="M248.67,400.55h-.75a15.05,15.05,0,0,1-7.53-1.95C220.75,387.23,75.34,296,69.85,293.23a13,13,0,0,1-7.53-10.54V154.74a13.57,13.57,0,0,1,1.43-6.25L248.67,250V400.55" transform="translate(-62.32 -97.62)"/></g></g></svg>