<svg xmlns="http://www.w3.org/2000/svg" xmlns:xlink="http://www.w3.org/1999/xlink" viewBox="0 0 316.59 310"><defs><style>.cls-1{isolation:isolate;}.cls-2{fill:url(#radial-gradient);}.cls-3{fill:#414242;}.cls-10,.cls-11,.cls-12,.cls-13,.cls-14,.cls-16,.cls-17,.cls-18,.cls-21,.cls-22,.cls-24,.cls-25,.cls-3,.cls-4,.cls-5,.cls-6,.cls-7,.cls-8,.cls-9{fill-rule:evenodd;}.cls-4{fill:#60bb55;}.cls-10,.cls-14,.cls-15,.cls-16,.cls-19,.cls-20,.cls-24,.cls-5,.cls-7,.cls-9{mix-blend-mode:multiply;}.cls-5{fill:url(#linear-gradient);}.cls-6{fill:#84c468;}.cls-7{fill:url(#linear-gradient-2);}.cls-8{fill:#4f9d4d;}.cls-9{fill:url(#linear-gradient-3);}.cls-10,.cls-16{opacity:0.7;}.cls-10{fill:url(#linear-gradient-4);}.cls-11{fill:#fff;}.cls-12{fill:url(#linear-gradient-5);}.cls-13{fill:#303030;}.cls-14{fill:url(#linear-gradient-6);}.cls-15,.cls-20{opacity:0.5;}.cls-15{fill:url(#linear-gradient-7);}.cls-16{fill:url(#linear-gradient-8);}.cls-17{fill:url(#linear-gradient-9);}.cls-18{fill:url(#linear-gradient-10);}.cls-19,.cls-20{fill:url(#linear-gradient-11);}.cls-21,.cls-22{opacity:0.8;}.cls-21{fill:url(#linear-gradient-13);}.cls-22{fill:url(#linear-gradient-14);}.cls-23{fill:url(#linear-gradient-15);}.cls-24{opacity:0.9;fill:url(#linear-gradient-16);}.cls-25{fill:url(#linear-gradient-17);}</style><radialGradient id="radial-gradient" cx="198.54" cy="359.72" r="102.85" gradientTransform="translate(-139.6 175.88) scale(1.5 0.28)" gradientUnits="userSpaceOnUse"><stop offset="0.12" stop-color="#515252" stop-opacity="0.7"/><stop offset="0.97" stop-color="#515252" stop-opacity="0"/></radialGradient><linearGradient id="linear-gradient" x1="280.64" y1="198.85" x2="148.42" y2="442.09" gradientUnits="userSpaceOnUse"><stop offset="0" stop-color="#519b4c" stop-opacity="0"/><stop offset="1" stop-color="#519b4c"/></linearGradient><linearGradient id="linear-gradient-2" x1="253.1" y1="346.19" x2="253.66" y2="414.84" xlink:href="#linear-gradient"/><linearGradient id="linear-gradient-3" x1="317.89" y1="251.01" x2="346.36" y2="482.06" xlink:href="#linear-gradient"/><linearGradient id="linear-gradient-4" x1="380.71" y1="190.65" x2="230.72" y2="320.67" gradientUnits="userSpaceOnUse"><stop offset="0" stop-color="#3f843f"/><stop offset="1" stop-color="#519b4c"/></linearGradient><linearGradient id="linear-gradient-5" x1="314.47" y1="298.76" x2="314.47" y2="237.41" gradientUnits="userSpaceOnUse"><stop offset="0" stop-color="#e5e3e3"/><stop offset="1" stop-color="#e5e3e3" stop-opacity="0"/></linearGradient><linearGradient id="linear-gradient-6" x1="304.92" y1="351.61" x2="301.57" y2="411.89" xlink:href="#linear-gradient"/><linearGradient id="linear-gradient-7" x1="256.66" y1="283.69" x2="255.25" y2="352.88" xlink:href="#linear-gradient-4"/><linearGradient id="linear-gradient-8" x1="139.14" y1="248.08" x2="256.03" y2="248.08" xlink:href="#linear-gradient-4"/><linearGradient id="linear-gradient-9" x1="197.59" y1="298.76" x2="197.59" y2="237.41" xlink:href="#linear-gradient-5"/><linearGradient id="linear-gradient-10" x1="256.18" y1="250.15" x2="256.18" y2="291.87" gradientTransform="matrix(1.01, 0, 0, 1.07, -1.78, 15.42)" gradientUnits="userSpaceOnUse"><stop offset="0" stop-color="#f9ec31"/><stop offset="0.21" stop-color="#f9de2e"/><stop offset="0.61" stop-color="#f7bb27"/><stop offset="1" stop-color="#f6921e"/></linearGradient><linearGradient id="linear-gradient-11" x1="288.64" y1="323.66" x2="253.41" y2="295.22" gradientTransform="matrix(1, 0, 0, 1, 0, 0)" xlink:href="#linear-gradient-10"/><linearGradient id="linear-gradient-13" x1="190.76" y1="176.55" x2="190.76" y2="133.55" gradientUnits="userSpaceOnUse"><stop offset="0.2" stop-color="#fff" stop-opacity="0"/><stop offset="0.97" stop-color="#fff"/></linearGradient><linearGradient id="linear-gradient-14" x1="401.3" y1="177.66" x2="401.3" y2="134.66" gradientTransform="matrix(-1, 0, 0, 1, 721.54, 0)" xlink:href="#linear-gradient-13"/><linearGradient id="linear-gradient-15" x1="256.68" y1="279.44" x2="255.66" y2="329.25" gradientTransform="matrix(1, 0, 0, 1, 0, 0)" xlink:href="#linear-gradient-10"/><linearGradient id="linear-gradient-16" x1="281.04" y1="285.09" x2="237.48" y2="300.25" gradientUnits="userSpaceOnUse"><stop offset="0" stop-color="#f9ec31" stop-opacity="0"/><stop offset="0.09" stop-color="#f9e730" stop-opacity="0.06"/><stop offset="0.27" stop-color="#f8da2d" stop-opacity="0.2"/><stop offset="0.51" stop-color="#f8c529" stop-opacity="0.44"/><stop offset="0.8" stop-color="#f7a823" stop-opacity="0.76"/><stop offset="1" stop-color="#f6921e"/></linearGradient><linearGradient id="linear-gradient-17" x1="263.24" y1="323.07" x2="254.84" y2="261.79" xlink:href="#linear-gradient-13"/></defs><g class="cls-1"><g id="Mascot"><ellipse class="cls-2" cx="158.29" cy="277.26" rx="158.29" ry="32.74"/><path class="cls-3" d="M321.91,154.07a66.27,66.27,0,0,0-131.73-.17l-.72,7.66L210,162.81l.39-7.59c3.09-23.89,20.91-39.91,45.72-40s43.07,16.21,45.76,40.37l1.27,10.22,20-1.43Z" transform="translate(-91.71 -95)"/><path class="cls-4" d="M135.76,151a8.14,8.14,0,0,0-8,8.14l.23,118.5,0,21.19v5.66l.14,73.21a8.13,8.13,0,0,0,8.15,8.11l73.2-.14,12.78,0,81.13-.15a81.6,81.6,0,0,0,81.2-81.5v-5.66l-.26-133a14.81,14.81,0,0,0-14.76-14.79c-14.9-.05-30.16-.08-44.95.78l-18.45,1.63c-16.47,2-33.1,5.75-46.39,12.47a8.17,8.17,0,0,1-7.47,0c-13.93-7.25-29.08-11-46.35-12.9L187.5,151.1C170.19,150.33,152.5,150.8,135.76,151Z" transform="translate(-91.71 -95)"/><path class="cls-5" d="M143.93,150.87a16.42,16.42,0,0,0-16.2,16.45l.21,110.29,0,21.19v5.66l.14,73.08a8.26,8.26,0,0,0,8.28,8.24l73.07-.14,12.78,0,81.13-.15a81.6,81.6,0,0,0,81.2-81.5v-5.66l-.26-132.89a14.94,14.94,0,0,0-14.89-14.92c-14.86-.05-30.07-.08-44.82.78l-18.45,1.63c-16.44,2-33.05,5.74-46.33,12.44a8.33,8.33,0,0,1-7.59,0c-13.92-7.23-29.05-11-46.29-12.87L187.5,151.1C173,150.45,158.2,150.68,143.93,150.87Z" transform="translate(-91.71 -95)"/><path class="cls-6" d="M151.15,385.76l58.33-.12,12.78,0,81.13-.15a80.93,80.93,0,0,0,52.14-19.17,107.9,107.9,0,0,0-204.38,19.46" transform="translate(-91.71 -95)"/><path class="cls-7" d="M151.15,385.76l58.33-.12,12.78,0,81.13-.15a80.93,80.93,0,0,0,52.14-19.17,107.9,107.9,0,0,0-204.38,19.46" transform="translate(-91.71 -95)"/><path class="cls-8" d="M256.45,385.56l47.89-.8A80.26,80.26,0,0,0,384.59,304v-5.66l-.27-141.11a6.69,6.69,0,0,0-6.66-6.67c-17.44,0-35.56-.27-53,.75l-18.45,1.63c-18.05,2.23-36.31,6.48-50.13,14.49Z" transform="translate(-91.71 -95)"/><path class="cls-9" d="M256.45,385.56l47.89-.8A80.26,80.26,0,0,0,384.59,304v-5.66l-.27-141.11a6.69,6.69,0,0,0-6.66-6.67c-17.44,0-35.56-.27-53,.75l-18.45,1.63c-18.05,2.23-36.31,6.48-50.13,14.49Z" transform="translate(-91.71 -95)"/><path class="cls-10" d="M314.36,189.64A58.44,58.44,0,1,1,256,248.19a58.44,58.44,0,0,1,58.33-58.55" transform="translate(-91.71 -95)"/><path class="cls-11" d="M314.37,197.31a50.77,50.77,0,1,1-50.66,50.86,50.77,50.77,0,0,1,50.66-50.86" transform="translate(-91.71 -95)"/><path class="cls-12" d="M363.5,234.14a51.08,51.08,0,0,1-98.12.23,51.07,51.07,0,1,0,98.12-.23Z" transform="translate(-91.71 -95)"/><path class="cls-13" d="M308.65,215.19a33.6,33.6,0,1,1-27.17,19.48A16.19,16.19,0,1,0,307,215.4c.55-.09,1.12-.15,1.68-.21" transform="translate(-91.71 -95)"/><path class="cls-4" d="M256.45,385.56l47.24-.1a80.05,80.05,0,0,0,51.85-19.16c-16.41-37.93-55.45-64.55-99.26-65.06Z" transform="translate(-91.71 -95)"/><path class="cls-14" d="M256.45,385.56l47.24-.1a80.05,80.05,0,0,0,51.85-19.16c-16.41-37.93-55.45-64.55-99.26-65.06Z" transform="translate(-91.71 -95)"/><path class="cls-15" d="M287.15,298.46c-5.38-20-25.18-21.81-30.55-22.12a5.57,5.57,0,0,0-1.23,0c-5.17.51-25.09,2.57-29.92,23a27,27,0,0,0,0,3.25l0,.07s1.7,1.12,4.3,2.78C233.19,315,249.7,333,256.44,333h.61c5.58,0,20.64-16.26,25.05-26.8,2.69-1.74,4.59-3.05,5-3.4A16,16,0,0,0,287.15,298.46Z" transform="translate(-91.71 -95)"/><path class="cls-16" d="M197.47,189.64a58.44,58.44,0,1,1-58.33,58.55,58.44,58.44,0,0,1,58.33-58.55" transform="translate(-91.71 -95)"/><path class="cls-11" d="M197.49,197.31a50.77,50.77,0,1,1-50.67,50.86,50.77,50.77,0,0,1,50.67-50.86" transform="translate(-91.71 -95)"/><path class="cls-17" d="M246.61,234.14a51.07,51.07,0,0,1-98.11.23,51.06,51.06,0,1,0,98.11-.23Z" transform="translate(-91.71 -95)"/><path class="cls-13" d="M203,215a33.58,33.58,0,1,1-29,16.67,16.18,16.18,0,1,0,27.27-16.63c.56,0,1.14,0,1.7,0" transform="translate(-91.71 -95)"/><path class="cls-18" d="M257.05,328.34c6.76,0,27.42-22.83,26.25-31.12-4.76-18-22.05-20.2-26.78-20.48a5,5,0,0,0-1.09,0c-4.55.45-22,3.36-26.25,21.65-1.4,6.9,19.47,29.93,27.26,29.94Z" transform="translate(-91.71 -95)"/><path class="cls-19" d="M279.08,308.13c2.81-4.29,4.59-8.31,4.22-10.91a25.58,25.58,0,0,0-10.19-14.92,40.82,40.82,0,0,0-16.51-4.53,5.57,5.57,0,0,0-1.23,0A41.08,41.08,0,0,0,239,283a26,26,0,0,0-9.84,15.44c-.4,2,1,5.23,3.4,8.9,7.76,4.61,19.62,11.22,23.73,11.22S271.45,312.66,279.08,308.13Z" transform="translate(-91.71 -95)"/><path class="cls-20" d="M279.08,308.13c2.81-4.29,4.59-8.31,4.22-10.91a25.58,25.58,0,0,0-10.19-14.92,40.82,40.82,0,0,0-16.51-4.53,5.57,5.57,0,0,0-1.23,0A41.08,41.08,0,0,0,239,283a26,26,0,0,0-9.84,15.44c-.4,2,1,5.23,3.4,8.9,7.76,4.61,19.62,11.22,23.73,11.22S271.45,312.66,279.08,308.13Z" transform="translate(-91.71 -95)"/><path class="cls-21" d="M250.55,170.18c-13.94-8-29.13-12-46.68-13.92L186.68,155c-16.12-.72-32.59-.28-48.19-.12a7.61,7.61,0,0,0-7.53,7.62C185,152.89,250.55,170.18,250.55,170.18Z" transform="translate(-91.71 -95)"/><path class="cls-22" d="M260.45,170.18c13.93-8,29.13-12,46.67-13.92L324.31,155c16.12-.72,32.59-.28,48.19-.12a7.61,7.61,0,0,1,7.53,7.62C326,152.89,260.45,170.18,260.45,170.18Z" transform="translate(-91.71 -95)"/><path class="cls-23" d="M287,296c-5.38-19.15-25-21.53-30.36-21.82a5.57,5.57,0,0,0-1.23,0c-5.17.49-25,3.62-29.81,23.15a9.64,9.64,0,0,0-.14,1.95l0,.07s24.54,15.57,30.86,15.57c6.59,0,29.33-14.21,30.76-15.47A10.27,10.27,0,0,0,287,296Z" transform="translate(-91.71 -95)"/><path class="cls-24" d="M225.56,297.32a9.64,9.64,0,0,0-.14,1.95l0,.07s23.86,15.14,30.58,15.55c1.85-37.62-.66-40.72-.66-40.72C250.2,274.66,230.4,277.79,225.56,297.32Z" transform="translate(-91.71 -95)"/><path class="cls-25" d="M262.74,275a41.21,41.21,0,0,0-6.14-.82,5.57,5.57,0,0,0-1.23,0s2.51,3.1.66,40.72C259.19,306.44,261.62,285.82,262.74,275Z" transform="translate(-91.71 -95)"/><path class="cls-11" d="M254.6,274.25l-.15,0Z" transform="translate(-91.71 -95)"/></g></g></svg>